<svg xmlns="http://www.w3.org/2000/svg" viewBox="0 0 512 512" role="img" aria-labelledby="title desc">
  <title id="title">DigitalArts mark</title>
  <desc id="desc">A premium DigitalArts monogram with a gold D and white A.</desc>
  <defs>
    <radialGradient id="bg" cx="50%" cy="42%" r="78%">
      <stop offset="0" stop-color="#0e3a24"/>
      <stop offset=".62" stop-color="#052414"/>
      <stop offset="1" stop-color="#010904"/>
    </radialGradient>
    <linearGradient id="gold" x1="116" y1="126" x2="402" y2="402" gradientUnits="userSpaceOnUse">
      <stop offset="0" stop-color="#fff0a8"/>
      <stop offset=".33" stop-color="#d9a629"/>
      <stop offset=".58" stop-color="#f9dc78"/>
      <stop offset="1" stop-color="#9a6b12"/>
    </linearGradient>
    <linearGradient id="ivory" x1="184" y1="140" x2="334" y2="426" gradientUnits="userSpaceOnUse">
      <stop offset="0" stop-color="#ffffff"/>
      <stop offset=".48" stop-color="#f9f3e3"/>
      <stop offset="1" stop-color="#d9cfb7"/>
    </linearGradient>
    <filter id="shadow" x="-30%" y="-30%" width="160%" height="160%">
      <feDropShadow dx="0" dy="12" stdDeviation="12" flood-color="#000" flood-opacity=".42"/>
    </filter>
  </defs>
  <rect width="512" height="512" rx="108" fill="url(#bg)"/>
  <g filter="url(#shadow)">
    <path fill="url(#gold)" d="M117 138h177c86 0 151 61 151 144 0 84-65 144-151 144h-96l29-64h66c46 0 81-34 81-80s-35-80-81-80H185v79l-68 45z"/>
    <path fill="url(#ivory)" d="M252 184h32l110 242h-70l-22-52h-100l-24 52h-72zm26 134-26-62-25 62z"/>
    <path fill="url(#gold)" d="M74 391c36-93 112-139 213-150-98 35-159 92-183 190z"/>
  </g>
</svg>
