<svg xmlns="http://www.w3.org/2000/svg" viewBox="0 0 1200 420" role="img" aria-labelledby="title desc">
  <title id="title">DigitalArts</title>
  <desc id="desc">DigitalArts premium logo with monogram and serif wordmark.</desc>
  <defs>
    <radialGradient id="bg" cx="50%" cy="46%" r="78%">
      <stop offset="0" stop-color="#0e3a24"/>
      <stop offset=".62" stop-color="#052414"/>
      <stop offset="1" stop-color="#010904"/>
    </radialGradient>
    <linearGradient id="gold" x1="92" y1="88" x2="310" y2="324" gradientUnits="userSpaceOnUse">
      <stop offset="0" stop-color="#fff0a8"/>
      <stop offset=".34" stop-color="#d9a629"/>
      <stop offset=".62" stop-color="#f9dc78"/>
      <stop offset="1" stop-color="#9a6b12"/>
    </linearGradient>
    <linearGradient id="ivory" x1="160" y1="82" x2="1010" y2="320" gradientUnits="userSpaceOnUse">
      <stop offset="0" stop-color="#fffdf2"/>
      <stop offset=".5" stop-color="#f5efe0"/>
      <stop offset="1" stop-color="#d8ccb5"/>
    </linearGradient>
    <filter id="shadow" x="-20%" y="-40%" width="150%" height="190%">
      <feDropShadow dx="0" dy="10" stdDeviation="9" flood-color="#000" flood-opacity=".42"/>
    </filter>
  </defs>
  <rect width="1200" height="420" rx="32" fill="url(#bg)"/>
  <g filter="url(#shadow)">
    <g transform="translate(70 70)">
      <path fill="url(#gold)" d="M0 26h140c69 0 121 49 121 116 0 68-52 116-121 116H64l23-52h52c37 0 65-27 65-64s-28-64-65-64H54v63L0 177z"/>
      <path fill="url(#ivory)" d="M108 63h27l88 195h-56l-18-42H68l-19 42H-9zm21 108-21-50-20 50z"/>
      <path fill="url(#gold)" d="M-35 231c29-75 90-112 171-121-78 28-127 74-146 153z"/>
    </g>
    <text x="380" y="250" fill="url(#ivory)" font-family="Georgia, 'Times New Roman', serif" font-size="132" font-weight="700">DigitalArts</text>
  </g>
</svg>
